<svg width="25" height="24" viewBox="0 0 25 24" fill="none" xmlns="http://www.w3.org/2000/svg">
<path d="M4.79929 22.2761C4.68259 22.9413 5.33894 23.462 5.9186 23.1641L12.5024 19.7802L19.0863 23.1641C19.6659 23.462 20.3223 22.9413 20.2056 22.2761L18.961 15.1819L24.2445 10.1469C24.7383 9.67639 24.4827 8.81605 23.8212 8.72208L16.4735 7.67827L13.1973 1.18846C12.9022 0.603848 12.1027 0.603848 11.8076 1.18846L8.53141 7.67827L1.1837 8.72208C0.522215 8.81605 0.266615 9.67639 0.760386 10.1469L6.04388 15.1819L4.79929 22.2761ZM12.1562 18.1239L6.62757 20.9655L7.66895 15.0296C7.71804 14.7497 7.62574 14.4632 7.42483 14.2718L3.06457 10.1166L9.14303 9.2531C9.39431 9.2174 9.61371 9.05692 9.73225 8.82211L12.5024 3.33461L15.2726 8.82211C15.3912 9.05692 15.6106 9.2174 15.8619 9.2531L21.9403 10.1166L17.5801 14.2718C17.3791 14.4632 17.2868 14.7497 17.3359 15.0296L18.3773 20.9655L12.8487 18.1239C12.6303 18.0117 12.3746 18.0117 12.1562 18.1239Z" fill="#FFD57A"/>
</svg>
